<?xml version="1.0" encoding="utf-8"?>
<!-- Generator: Adobe Illustrator 18.1.1, SVG Export Plug-In . SVG Version: 6.00 Build 0)  -->
<svg version="1.1" id="Layer_1" xmlns="http://www.w3.org/2000/svg" xmlns:xlink="http://www.w3.org/1999/xlink" x="0px" y="0px"
	 viewBox="0 0 500 500" enable-background="new 0 0 500 500" xml:space="preserve">
<path fill="#4DDBAC" d="M437.9,235.6l-20.3-6c18.7-27.3,27.8-57.3,27.8-90.7c0-44.2-26.5-59.8-49.2-59.8c-26,0-48.5,22.1-68.8,67.4
	c-2.5,5.5-4.9,11.4-7.3,17.5c-7.7-8.2-18.4-11.6-28.7-11.6c-16.3,0-35.8,9.7-46.3,22.7c-5.8-3.8-12.9-5.9-20.6-5.9c-0.5,0-1,0-1.5,0
	c-0.2-1.2-0.3-2.4-0.3-3.5c0-1.9,0.2-2.6,4.9-8.3c6.1-7.4,15.2-18.7,15.2-37.2c0-26.9-25.5-49.4-56.7-49.4h-21.4
	c-4.8,0-8.3,4.4-7.2,9l2.1,9.4c-34.9,2.3-66.3,20.2-89.1,51.1c-21,28.4-33,66.1-33,103.4c0,15.3,2.8,28.5,7.4,39.7
	c-12.6,9.8-19.9,25.6-19.9,44.2c0,28.7,23.6,59.3,67.3,59.3c29.7,0,50.7-12.4,65.7-23.2c-1.8,6.2-2.7,12.7-2.7,19.5
	c0,16.5,7,30.2,19.6,38.4c9.1,5.9,20.5,8.8,35,8.8c30.9,0,57.6-22.5,79.5-66.9c1.8,8.7,4.4,17.9,8.3,26.6
	c15.7,35.1,41.4,40.3,55.3,40.3c40.1,0,67-35.7,67-88.9c0-2.1-0.1-4.3-0.2-6.5c0.6,0,1.2,0,1.8,0c31,0,52.7-21.6,52.7-52.6
	C474.3,254,451.4,239.6,437.9,235.6z"/>
<g>
	<path fill="#FFFFFF" d="M170.1,298.3c0-12.8,11.1-43.2,11.1-66.1c0-11.4-2.7-29.5-19.2-29.5c-13.5,0-20.6,5.7-24.2,12.5
		c0,0,6.3,20,6.3,33.2c0,18.7-15.6,36.5-33.9,41.8c0,0-14-17.1-14-44.4c0-49.9,16.6-90.8,76.8-117c-17.4,23.5-11.8,54.7,10,57.1
		c7.9,0.9,14.6-1.3,17.5-5.2c0,0-2.1-7.3-2.1-14.8c0-21.7,20.1-25.6,20.1-45.5c0-13-14.9-24.4-32.3-24.4c0,0,2.2,12.3-4.2,19.4
		c0,0-9.4-1.7-14.8-1.7c-65,0-105.2,66.9-105.2,130.2c0,44.1,29.5,62.2,45.1,62.2c15.6,0,22.7-8.8,27.6-12.8
		c0,9.3,4.5,17.1,11.4,22.7c-10,2.6-25.8,11.7-40.1,11.7c-30.1,0-38.8-28.6-38.8-28.6c-11.9,4.1-17.7,15.2-17.7,28.7
		c0,17.7,15.8,34.8,42.8,34.8c43.9,0,62.9-35.3,82.5-36.6c0.6,0,1.2,0,1.8,0C176.7,325.9,170.1,311.1,170.1,298.3z"/>
	<path fill="#FFFFFF" d="M430.9,259.1c-0.4,5.6-8.8,16.1-21.3,16.1c-17.8,0-34.4-13.1-47-21.7c33.4-28.2,58.3-64,58.3-114.6
		c0-19.9-7.2-35.4-24.7-35.4c-32.6,0-65,87.5-78.9,161c-7.8,5-15.7,9.9-23.6,14.6c8.7-33.6,13.4-64.9,13.4-81
		c0-14.3-4.7-21.3-15.6-21.3c-9.4,0-22.4,7-27.7,14.3c3.8,12.9,1.8,44.9-5.3,79.4c-5.2,5.5-11.6,11-18.9,11c-7.2,0-8.9-3.7-8.9-16
		c0-14.5,7.7-39.2,7.7-55.1c0-8.2-3.7-16.8-13.8-16.8c-13.5,0-25.4,10.8-29.1,17.6c7.6,17.9-3.4,35.9-3.4,62.3
		c0,21.2,12.7,29.1,28.5,29.1c14,0,24.8-5.8,33.5-13c-1.3,5.2-2.8,10.4-4.4,15.5c-39,23.7-70,47-70,78.1c0,17.5,12.7,22.7,30.2,22.7
		c34.2,0,60.4-50.3,76.9-102.7c8.8-5,17.8-10.2,26.8-15.6c-2.1,15.4-3.3,29.5-3.2,41.3c0.2,33.7,11.4,76.9,42.6,76.9
		c26.5,0,42.5-26.5,42.5-64.4c0-18-6.5-35.3-13.2-48.7c12,10.1,24.7,17.8,39.3,17.8c18.8,0,28.2-12.1,28.2-28.1
		C449.8,264.7,430.9,259.1,430.9,259.1z M191.2,386.4c3.3-21.8,23-39.2,49.7-56.2C228.5,360.5,211.8,384,191.2,386.4z M404.2,124.9
		c1.8,3.6,2.5,8.2,2.5,15c0,36-17,64.3-41.6,88C376,187.1,390.4,147,404.2,124.9z M357.2,386.7c-9,0-9.1-26.1-9.1-56.5
		c0-11.5,1.4-25.9,4-41.7c11.6,12,26.2,30.2,26.2,52.3C378.4,364.8,371.6,386.7,357.2,386.7z"/>
</g>
</svg>
